<?xml version="1.0" encoding="UTF-8"?>
<svg xmlns="http://www.w3.org/2000/svg" version="1.1" viewBox="0 0 554 546">
  <defs>
    <style>
      .cls-1 {
        fill: #d9a86c;
        stroke: #343635;
        stroke-miterlimit: 10;
        stroke-width: 10px;
      }
    </style>
  </defs>
  <!-- Generator: Adobe Illustrator 28.6.0, SVG Export Plug-In . SVG Version: 1.2.0 Build 709)  -->
  <g>
    <g id="Livello_1">
      <g id="Livello_1-2" data-name="Livello_1">
        <g id="Capa_1">
          <path class="cls-1" d="M288.9,188.2c-56.3,0-102,45.7-102,101.9s45.7,101.9,102,101.9,102-45.7,102-101.9-45.7-101.9-102-101.9h0ZM360.8,252.7l-67.5,34.9c-2,1.1-4.4-.5-4.4-2.6v-75.9c0-1.7,1.6-2.9,3.1-2.9,30,1.1,56,17.9,70,42.4.8,1.5.3,3.4-1.2,4.2h0ZM288.9,188.2c-56.3,0-102,45.7-102,101.9s45.7,101.9,102,101.9,102-45.7,102-101.9-45.7-101.9-102-101.9h0ZM360.8,252.7l-67.5,34.9c-2,1.1-4.4-.5-4.4-2.6v-75.9c0-1.7,1.6-2.9,3.1-2.9,30,1.1,56,17.9,70,42.4.8,1.5.3,3.4-1.2,4.2h0ZM471.6,16H94.4c-37.3,0-67.4,30.1-67.4,67.2v377.4c0,37.3,30.3,67.4,67.4,67.4h377.2c37.3,0,67.4-30.3,67.4-67.4V83.4c0-37.3-30.3-67.4-67.4-67.4ZM240.1,112.7c0-12.3,10-22.2,22.2-22.2h51.8c12.3,0,22.2,9.9,22.2,22.2v17.6c0,2-1.9,3.4-3.7,2.9-14.1-3.9-28.8-5.9-43.6-5.9s-30.4,2.1-45.1,6.4c-2,.5-3.9-.9-3.9-2.9v-18h.1ZM143.4,186.3c-8.6-8.7-8.6-22.7,0-31.3l10.6-10.6h0c8.7-8.7,22.7-8.7,31.4,0l8.9,8.9c1.2,1.4,1.1,3.6-.5,4.5-7.1,5.1-13.8,10.8-20.1,17.1s-11.8,12.8-17,19.9c-1.2,1.4-3.3,1.7-4.7.3l-8.7-8.7h0c0-.1,0,0,0,0h0ZM288.9,434.7c-80,0-144.8-64.6-144.8-144.6s64.9-144.7,144.8-144.7,144.8,64.6,144.8,144.6-64.9,144.7-144.8,144.7h0ZM288.9,188.2c-56.3,0-102,45.7-102,101.9s45.7,101.9,102,101.9,102-45.7,102-101.9-45.7-101.9-102-101.9h0ZM360.8,252.7l-67.5,34.9c-2,1.1-4.4-.5-4.4-2.6v-75.9c0-1.7,1.6-2.9,3.1-2.9,30,1.1,56,17.9,70,42.4.8,1.5.3,3.4-1.2,4.2h0Z"/>
        </g>
      </g>
    </g>
  </g>
</svg>