<?xml version="1.0" encoding="UTF-8"?>
<svg xmlns="http://www.w3.org/2000/svg" version="1.1" viewBox="0 0 549 544.9">
  <defs>
    <style>
      .cls-1 {
        fill: #d9a86c;
        stroke: #343635;
        stroke-miterlimit: 10;
        stroke-width: 10px;
      }
    </style>
  </defs>
  <!-- Generator: Adobe Illustrator 28.6.0, SVG Export Plug-In . SVG Version: 1.2.0 Build 709)  -->
  <g>
    <g id="Livello_1">
      <g id="Livello_1-2" data-name="Livello_1">
        <g id="Layer_1">
          <path class="cls-1" d="M332.2,264.8c2.3,1.2,3.7,3.6,3.6,6.2.1,2.2-.8,4.3-2.6,5.7l-114.6,57.3c-3.5,1.9-7.8.7-9.8-2.8-.6-1.1-.9-2.2-.9-3.4v-113.5c0-2.6,1.3-5,3.6-6.2,1-.6,2.2-.9,3.3-.9,1.7,0,3.4.6,4.9,1.5l112.4,56.2h.1ZM528,121.7v298.7c0,58.9-47.8,106.6-106.7,106.7H122.7c-58.9,0-106.7-47.8-106.7-106.7V121.7C16,62.8,63.8,15,122.7,15h298.7c58.9,0,106.6,47.8,106.7,106.7h-.1ZM378.5,271c0-18.3-10-35.2-26.2-43.8l-112.6-56.2c-23.9-13.7-54.4-5.4-68.1,18.4-4.3,7.6-6.6,16.1-6.6,24.9v113.5c-.1,17.8,9.4,34.3,24.8,43.1,7.7,4.5,16.4,6.9,25.3,6.9s16.3-2.1,23.5-6.2l114.7-57.3c15.6-8.8,25.2-25.4,25.1-43.3h.1Z"/>
        </g>
      </g>
    </g>
  </g>
</svg>